<svg id="Layer_1" data-name="Layer 1" xmlns="http://www.w3.org/2000/svg" viewBox="0 0 40 40"><defs><style>.cls-1{fill:#03a5ed;}</style></defs><title>Icon_C</title><path class="cls-1" d="M25.36,8.43h3.52a0.47,0.47,0,0,1,.45.32L33.07,20H31.14l-2.89-9.64H25.36V8.43ZM35,22.5l-1.06,9.76a1.4,1.4,0,0,1-1.4,1.24h-24a1.4,1.4,0,0,1-1.4-1.24L6.08,22.5a1.38,1.38,0,0,1,.35-1.08,1.41,1.41,0,0,1,1-.46H33.6a1.41,1.41,0,0,1,1,.46A1.38,1.38,0,0,1,35,22.5Zm-7.75,5.9-0.58-1.93a1,1,0,0,0-1.85.55L25,27.71H16L16.25,27a1,1,0,0,0-1.85-.55L13.83,28.4a1,1,0,0,0,.92,1.24H26.32A1,1,0,0,0,27.25,28.4Zm-14.42-18h2.89V8.43H12.2a0.47,0.47,0,0,0-.45.32L8,20H9.93Zm13.46,2.32a0.6,0.6,0,0,0-.55-0.39H23.43V7.46a1,1,0,0,0-1-1H18.61a1,1,0,0,0-1,1v4.82H15.35a0.6,0.6,0,0,0-.55.39,0.66,0.66,0,0,0,.13.69l5.19,5.49a0.58,0.58,0,0,0,.85,0l5.19-5.49A0.66,0.66,0,0,0,26.28,12.68Z"/></svg>