<svg id="Layer_1" data-name="Layer 1" xmlns="http://www.w3.org/2000/svg" viewBox="0 0 30 30"><defs><style>.cls-1{fill:#03a5ed;}</style></defs><title>Icon_A</title><path class="cls-1" d="M3.62,23.35L9.48,17.5a2.9,2.9,0,0,0,.19-0.24l0.8,0.86,1.28-1.27-0.09-.13a8.16,8.16,0,0,1,5.09-13l0.85-.13h1.2l0.5,0.08A8.16,8.16,0,0,1,26.16,10c0.09,0.4.14,0.81,0.21,1.22v1.24c-0.07.42-.13,0.84-0.23,1.26a7.77,7.77,0,0,1-1,2.35l-0.06.09-1.93-.93a5.91,5.91,0,0,0,.69-5.41,5.89,5.89,0,0,0-3-3.41,6,6,0,0,0-8,2.6A5.81,5.81,0,0,0,12.6,14a6,6,0,0,0,3.65,3.48l-1,1.89a8.06,8.06,0,0,1-2.08-1.17l-1.26,1.24,0.83,0.79-6.1,6.11h0a0.61,0.61,0,0,0-.07-0.11l-2.8-2.8L3.62,23.4v0Z"/><path class="cls-1" d="M21,26.38c-0.29-.06-0.58-0.1-0.87-0.18a5,5,0,1,1,6.24-5.43,1.94,1.94,0,0,0,0,.19v0.89a1.57,1.57,0,0,0,0,.17,5,5,0,0,1-3.86,4.24l-0.63.12H21Zm-2.4-2.13L20.81,24A0.42,0.42,0,0,0,21,23.89l3.71-3.71A1.26,1.26,0,0,0,24.87,20a0.39,0.39,0,0,0-.05-0.55l-0.8-.8c-0.24-.24-0.47-0.48-0.71-0.71a0.4,0.4,0,0,0-.59,0l-3.86,3.87a0.34,0.34,0,0,0-.09.19C18.69,22.73,18.63,23.47,18.55,24.24Z"/><path class="cls-1" d="M20.88,22.57l-0.65-.65,2.53-2.53L23.41,20Z"/></svg>