<svg id="Layer_1" data-name="Layer 1" xmlns="http://www.w3.org/2000/svg" viewBox="0 0 30 30"><defs><style>.cls-1{fill:#03a5ed;}</style></defs><title>Icon_A</title><path class="cls-1" d="M25.83,16.5l-4,7.94a1.41,1.41,0,0,1-1.25.77H5.49a1.41,1.41,0,0,1-1.41-1.41V23.1c0.53,0.88,1.33.93,2-.27l3.71-6.75A1.41,1.41,0,0,1,11,15.35H25.13A0.79,0.79,0,0,1,25.83,16.5ZM5.49,22.14V12.84a0.31,0.31,0,0,1,.31-0.31h8.14V11.13H11.13V10.42A1.41,1.41,0,0,0,9.72,9H5.49a1.41,1.41,0,0,0-1.41,1.41V21.7C4.08,22.64,5.25,23.06,5.49,22.14Zm14.09-9.6h1.1a0.31,0.31,0,0,1,.31.31v1.8H22.4V12.53A1.41,1.41,0,0,0,21,11.13H19.58v1.41ZM13.71,9.72h1.64v3.5a0.73,0.73,0,0,0,.73.73h1.36a0.73,0.73,0,0,0,.73-0.73V9.72h1.64a0.47,0.47,0,0,0,.42-0.28,0.5,0.5,0,0,0-.06-0.52L17.13,5a0.46,0.46,0,0,0-.73,0l-3.05,4a0.5,0.5,0,0,0-.06.52A0.47,0.47,0,0,0,13.71,9.72Z"/></svg>