<svg id="Layer_1" data-name="Layer 1" xmlns="http://www.w3.org/2000/svg" viewBox="0 0 40 40"><defs><style>.cls-1{fill:#03a5ed;}</style></defs><title>Icon_C</title><path class="cls-1" d="M4.91,25.84A1.25,1.25,0,0,0,6,27.94a4.17,4.17,0,0,0,4.66.34l-3.47-6.5A4.17,4.17,0,0,0,4.91,25.84Z"/><path class="cls-1" d="M24,17A1.25,1.25,0,0,0,23,16.32L20,10.8a0.47,0.47,0,1,0-.82.44l6.91,12.95a0.47,0.47,0,1,0,.82-0.44L24,18.23A1.25,1.25,0,0,0,24,17Z"/><path class="cls-1" d="M10.1,20.23L7.62,21.55l3.48,6.52,0.52-.28,2.63,4.92a1.06,1.06,0,0,0,1.86-1L13.49,26.8l0.09,0c8.44-4.51,12.1-2.57,12.1-2.57l-3.36-6.29L19,11.61S18.54,15.72,10.1,20.23Z"/><rect class="cls-1" x="27.48" y="12.86" width="7.88" height="1.28" transform="translate(-2.64 16.56) rotate(-28.38)"/><rect class="cls-1" x="29.52" y="18.65" width="5.9" height="0.95" transform="translate(-0.44 0.76) rotate(-1.34)"/><rect class="cls-1" x="24.42" y="8.9" width="5.9" height="0.95" transform="translate(3.47 25.68) rotate(-53.21)"/></svg>