<svg id="Layer_1" data-name="Layer 1" xmlns="http://www.w3.org/2000/svg" viewBox="0 0 40 40"><defs><style>.cls-1{fill:#03a5ed;}</style></defs><title>Icon_C</title><path class="cls-1" d="M26.24,23.84l-2.73,1.6-5.78-9.91L16,12.61a1.19,1.19,0,0,1,.58-1.86c0.79-.46,1.53-0.84,2.13.2C21.22,15.21,23.7,19.48,26.24,23.84Z"/><path class="cls-1" d="M13,17.23l2.8,1.63L9.11,30.33l-2.8-1.64Z"/><path class="cls-1" d="M29.71,34.46c-0.68-.69-1.36-1.39-2-2.08a5.29,5.29,0,0,1-1.15-1.14c-0.29-.6-0.68-1.54-0.42-1.93a4.28,4.28,0,0,1,2-1.31,1.67,1.67,0,0,1,1.12.63A5.1,5.1,0,0,1,29.71,34.46Z"/><path class="cls-1" d="M26.59,24.44l1.61,2.73-2.73,1.59-1.61-2.71Z"/><path class="cls-1" d="M5.9,29.34l2.74,1.58c-0.68.72-1.28,1.38-1.92,2a8.3,8.3,0,0,1-2.19,1.68Z"/><path class="cls-1" d="M13.31,16.82c1.22-2.49,1.4-2.6,2.87-1.77s1.32,1.14-.12,3.36Z"/><polygon class="cls-1" points="9.07 22.61 3.96 22.61 3.96 25.33 7.41 25.33 9.07 22.61"/><polygon class="cls-1" points="26.26 22.61 31.38 22.61 31.38 25.33 27.93 25.33 26.26 22.61"/><polygon class="cls-1" points="14.68 22.49 20.53 22.49 21.89 25.26 13.26 25.26 14.68 22.49"/><path class="cls-1" d="M31,5.26a6.13,6.13,0,1,0,6.13,6.13A6.13,6.13,0,0,0,31,5.26Zm0,11.21a5.08,5.08,0,1,1,5.08-5.08A5.08,5.08,0,0,1,31,16.47Z"/><path class="cls-1" d="M34.38,10.67H31.75V8a0.23,0.23,0,0,0-.23-0.23h-1a0.23,0.23,0,0,0-.23.23v2.63H27.68a0.23,0.23,0,0,0-.23.23v1a0.23,0.23,0,0,0,.23.23h2.63v2.63a0.23,0.23,0,0,0,.23.23h1a0.23,0.23,0,0,0,.23-0.23V12.11h2.63a0.23,0.23,0,0,0,.23-0.23v-1A0.23,0.23,0,0,0,34.38,10.67Z"/></svg>