<svg id="Layer_1" data-name="Layer 1" xmlns="http://www.w3.org/2000/svg" viewBox="0 0 25 25"><defs><style>.cls-1{fill:#999;}</style></defs><title>Icon_B</title><polygon class="cls-1" points="7.14 12.13 7.14 8.36 7.14 6.96 9.24 6.96 15.76 6.96 17.86 6.96 17.86 8.36 17.86 12.13 19.6 10.97 20.07 10.25 20.07 10.24 19.6 9.52 18.45 8.76 18.45 6.37 14.86 6.37 12.51 4.81 12.49 4.81 10.14 6.37 6.54 6.37 6.54 8.76 5.4 9.52 4.93 10.24 4.93 10.25 5.4 10.97 7.14 12.13"/><path class="cls-1" d="M20.35,10.87L20,11.38l-5.08,3.37,5.31,4.94a0.88,0.88,0,0,0,.09-0.39V10.87Z"/><path class="cls-1" d="M5,11.38l-0.33-.51V19.3a0.88,0.88,0,0,0,.09.39l5.31-4.94Z"/><path class="cls-1" d="M12.5,16.37l-2-1.3-5.4,5a0.88,0.88,0,0,0,.4.09H19.46a0.88,0.88,0,0,0,.4-0.09l-5.4-5Z"/><path class="cls-1" d="M11.69,9.27a2.11,2.11,0,0,0-.88,1.53,1.46,1.46,0,0,0,.67,1.55,1.14,1.14,0,0,0,1.34-.29c0.5,0.84,1.75.19,2.19-.5a2.46,2.46,0,0,0,.18-2.36,2.85,2.85,0,0,0-3-1.31,3,3,0,0,0-2.52,2.95,2.71,2.71,0,0,0,2.24,2.84,3.61,3.61,0,0,0,3.36-.94A0.25,0.25,0,0,0,15,12.33h0a0.89,0.89,0,0,0-.36.22,3,3,0,0,1-1.12.52,3.47,3.47,0,0,1-2-.08,2.34,2.34,0,0,1-1.14-3.13,2.44,2.44,0,0,1,2.69-1.41,1.79,1.79,0,0,1,1.51,2.63,1,1,0,0,1-.6.61c-0.3,0-.4-0.17-0.36-0.42,0.09-.59.3-1.14,0.41-1.73a0.31,0.31,0,0,0-.29-0.37c-0.29,0-.59,0-0.55.36A1.17,1.17,0,0,0,11.69,9.27Zm1,2.33a0.61,0.61,0,0,1-1.1-.48,1.44,1.44,0,0,1,.62-1.4,0.65,0.65,0,0,1,.87.63A1.78,1.78,0,0,1,12.7,11.6Z"/></svg>