<svg id="Layer_1" data-name="Layer 1" xmlns="http://www.w3.org/2000/svg" viewBox="0 0 30 30"><defs><style>.cls-1{fill:#03a5ed;}</style></defs><title>Icon_A</title><path class="cls-1" d="M25.25,8.79L15.2,3.24a0.48,0.48,0,0,0-.46,0l-10,5.52a0.48,0.48,0,0,0-.25.42V20.83a0.48,0.48,0,0,0,.25.42l10,5.51a0.48,0.48,0,0,0,.23.06,0.48,0.48,0,0,0,.23-0.06l10-5.56a0.48,0.48,0,0,0,.25-0.42V9.21A0.48,0.48,0,0,0,25.25,8.79ZM15,20l-4.05-2.24,4-2.2L19,17.79ZM9.91,11.84v0h0v0Zm0.5,0.43L14.51,10v4.68l-4.1,2.27V12.27Zm5.06,2.49V10l4.08,2.26V17ZM20,11.42L16,9.2,20,7,24,9.2Zm-10,0-4-2.22L10,7,14,9.2ZM5.46,10l4,2.21v4.7l-4-2.2V10Zm9.05,10.79v4.72l-4.1-2.26V18.54Zm1,0,4.08-2.26v4.7l-4.08,2.26v-4.7Zm5-8.6,4-2.23v4.72l-4,2.23V12.23ZM15,4.21l4,2.22L15,8.65l-4-2.22ZM5.46,15.81l4,2.2v4.73l-4-2.2V15.81Zm15,6.92V18l4-2.23V20.5Z"/></svg>