<svg id="Layer_1" data-name="Layer 1" xmlns="http://www.w3.org/2000/svg" viewBox="0 0 25 25"><defs><style>.cls-1{fill:#03a5ed;}</style></defs><title>Icon_B</title><path class="cls-1" d="M18.18,12.7a3.68,3.68,0,1,0,3.68,3.68A3.68,3.68,0,0,0,18.18,12.7Zm2.29,3.69-2.08,2a0.3,0.3,0,0,1-.42,0l-2.08-2c-0.12-.11-0.07-0.21.11-0.21h0.66a0.36,0.36,0,0,0,.41-0.27V14.76a0.36,0.36,0,0,1,.41-0.27h1.42a0.36,0.36,0,0,1,.41.27v1.15a0.36,0.36,0,0,0,.41.27h0.66C20.54,16.19,20.59,16.28,20.47,16.4Zm3-2.5a3.72,3.72,0,0,1-.79,2.29,4.51,4.51,0,1,0-8.81,1.44h-10a3.34,3.34,0,0,1-2.3-3.35A3.16,3.16,0,0,1,4.6,11a2.8,2.8,0,0,1,1.06.21c0-.15,0-0.3,0-0.46C5.64,8.66,7,7,8.67,7a2.61,2.61,0,0,1,1.66.61A3.7,3.7,0,0,1,12.5,5.16a3.41,3.41,0,0,1,1.25-.24A3.58,3.58,0,0,1,17,7.13,3.47,3.47,0,0,1,17.92,7c2,0,3.64,1.69,4.11,4A3.73,3.73,0,0,1,23.43,13.9Z"/></svg>