<svg id="Layer_1" data-name="Layer 1" xmlns="http://www.w3.org/2000/svg" viewBox="0 0 25 25"><defs><style>.cls-1{fill:#03a5ed;}</style></defs><title>Icon_B</title><path class="cls-1" d="M19.69,9.27a4.39,4.39,0,0,0-2,3.93,4.13,4.13,0,0,0,2.53,3.6c-0.28.6-.54,1.22-0.86,1.82a9.07,9.07,0,0,1-1.53,2.15,2.58,2.58,0,0,1-2.93.75A14.44,14.44,0,0,0,13.38,21a3.85,3.85,0,0,0-2.33.36,3.38,3.38,0,0,1-1.47.31,2.73,2.73,0,0,1-1.75-.9,10.41,10.41,0,0,1-2-3,10.27,10.27,0,0,1-1.07-5.12A5.91,5.91,0,0,1,6.54,8.54a3.67,3.67,0,0,1,3.15-1A12.63,12.63,0,0,1,11.61,8a3.58,3.58,0,0,0,2.24-.06,10.39,10.39,0,0,1,1.81-.46A4.09,4.09,0,0,1,19.47,9Z"/><path class="cls-1" d="M16,3.28c0.42,1.4-1.07,4.56-3.59,4.44A4.18,4.18,0,0,1,16,3.28Z"/></svg>