<svg id="Layer_1" data-name="Layer 1" xmlns="http://www.w3.org/2000/svg" viewBox="0 0 30 30"><defs><style>.cls-1{fill:#03a5ed;}</style></defs><title>Icon_A</title><path class="cls-1" d="M25.83,16.5l-4,7.94a1.41,1.41,0,0,1-1.25.77h-15a1.41,1.41,0,0,1-1.41-1.41V23.1c0.53,0.88,1.33.93,2-.27l3.71-6.75A1.41,1.41,0,0,1,11,15.35H25.13A0.79,0.79,0,0,1,25.83,16.5ZM5.49,22.14V12.84a0.31,0.31,0,0,1,.31-0.31h7.87l-1.09-1.41H11.13V10.42A1.41,1.41,0,0,0,9.72,9H5.49a1.41,1.41,0,0,0-1.41,1.41V21.7C4.08,22.64,5.25,23.06,5.49,22.14Zm15.19-9.6a0.31,0.31,0,0,1,.31.31v1.8H22.4V12.53A1.41,1.41,0,0,0,21,11.13h0l-1.09,1.41h0.83Zm-4.28,1.22a0.46,0.46,0,0,0,.73,0l3.05-4a0.5,0.5,0,0,0,.06-0.52A0.47,0.47,0,0,0,19.81,9H18.17V5.51a0.73,0.73,0,0,0-.73-0.73H16.08a0.73,0.73,0,0,0-.73.73V9H13.71a0.47,0.47,0,0,0-.42.28,0.5,0.5,0,0,0,.06.52Z"/></svg>