<svg id="Layer_1" data-name="Layer 1" xmlns="http://www.w3.org/2000/svg" viewBox="0 0 25 25"><defs><style>.cls-1{fill:#03a5ed;}</style></defs><title>Icon_B</title><path class="cls-1" d="M7.65,9.28v9.43a0.88,0.88,0,0,0,.88.88H9.82v1.92a0.71,0.71,0,0,0,1.41,0V19.59h2.51v1.92a0.71,0.71,0,1,0,1.41,0V19.59h1.28a0.88,0.88,0,0,0,.88-0.88V9.28H7.65Z"/><path class="cls-1" d="M7.16,15.39a1,1,0,0,1-.71,1.07h0a1,1,0,0,1-.71-1.07V11a1,1,0,0,1,.71-1.07h0A1,1,0,0,1,7.16,11v4.43Z"/><path class="cls-1" d="M19.25,15.39a1,1,0,0,1-.71,1.07h0a1,1,0,0,1-.71-1.07V11a1,1,0,0,1,.71-1.07h0A1,1,0,0,1,19.25,11v4.43Z"/><path class="cls-1" d="M15.12,4.62l0.52-1.51A0.25,0.25,0,0,0,15.16,3L14.67,4.37a4.79,4.79,0,0,0-2.17-.47,5,5,0,0,0-2.36.53L9.64,3a0.25,0.25,0,0,0-.48.16L9.7,4.69a5.54,5.54,0,0,0-2,4s9.67,0,9.67,0A5.87,5.87,0,0,0,15.12,4.62Zm-4.47,2a0.58,0.58,0,1,1,.58-0.58A0.58,0.58,0,0,1,10.64,6.63Zm3.56,0a0.58,0.58,0,1,1,.58-0.58A0.58,0.58,0,0,1,14.2,6.63Z"/></svg>