<svg id="Layer_1" data-name="Layer 1" xmlns="http://www.w3.org/2000/svg" viewBox="0 0 30 30"><defs><style>.cls-1{fill:#03a5ed;}</style></defs><title>Icon_A</title><path class="cls-1" d="M8.42,4.18a0.69,0.69,0,0,0-.69.69V6.94C8.14,7.34,8.54,7.76,9,8.16L9.12,8.32V5.56h9V9.39a0.69,0.69,0,0,0,.69.69h4V24.44H9.12V15.58L7.73,14.2V25.13a0.69,0.69,0,0,0,.69.69h15a0.69,0.69,0,0,0,.69-0.69V9.41a0.88,0.88,0,0,0-.21-0.53L19.24,4.37a0.7,0.7,0,0,0-.46-0.19H8.42Zm11,2.34L21.72,8.7H19.46V6.52Z"/><path class="cls-1" d="M20.44,13.62h-6L15.8,15h4.64a0.69,0.69,0,1,0,0-1.38"/><path class="cls-1" d="M20.44,16.22H17l1.38,1.38h2a0.69,0.69,0,1,0,0-1.38"/><path class="cls-1" d="M6.4,6.69A0.52,0.52,0,0,0,6,6.85l-2,2a0.52,0.52,0,0,0,0,.74L4.9,10.54l0.24,0.24,0.1,0.1L8,8.09,7.92,8,7.68,7.76,6.77,6.85A0.52,0.52,0,0,0,6.4,6.69ZM8.34,8.42L5.56,11.2l10,10,2.78-2.78Zm10.3,10.3-2.78,2.78,3.39,0.93a0.26,0.26,0,0,0,.32-0.32l-0.93-3.39h0Z"/></svg>