<svg id="Layer_1" data-name="Layer 1" xmlns="http://www.w3.org/2000/svg" viewBox="0 0 40 40"><defs><style>.cls-1{fill:#03a5ed;}</style></defs><title>Icon_C</title><path class="cls-1" d="M29.82,21.59L26.7,23.43,20.08,12.08l-2-3.35a1.37,1.37,0,0,1,.66-2.13c0.9-.53,1.75-1,2.45.23C24.07,11.7,26.92,16.6,29.82,21.59Z"/><path class="cls-1" d="M14.66,14l3.21,1.87L10.19,29,7,27.15Z"/><path class="cls-1" d="M33.8,33.77C33,33,32.25,32.17,31.46,31.39a6.06,6.06,0,0,1-1.31-1.31c-0.34-.69-0.78-1.76-0.48-2.22A4.9,4.9,0,0,1,32,26.36a1.91,1.91,0,0,1,1.29.72A5.84,5.84,0,0,1,33.8,33.77Z"/><path class="cls-1" d="M30.23,22.29l1.84,3.13-3.13,1.82L27.1,24.13Z"/><path class="cls-1" d="M6.52,27.89L9.65,29.7c-0.78.82-1.47,1.58-2.19,2.31A9.51,9.51,0,0,1,5,33.94Z"/><path class="cls-1" d="M15,13.55c1.39-2.86,1.6-3,3.29-2,1.52,0.86,1.52,1.3-.13,3.85Z"/><polygon class="cls-1" points="10.15 20.19 4.29 20.19 4.29 23.3 8.24 23.3 10.15 20.19"/><polygon class="cls-1" points="29.85 20.19 35.71 20.19 35.71 23.3 31.75 23.3 29.85 20.19"/><polygon class="cls-1" points="16.58 20.05 23.28 20.05 24.84 23.23 14.95 23.23 16.58 20.05"/></svg>